HIERARCHY
ROOT Pelvis
{
	OFFSET 0.000000 0.000000 0.000000
	CHANNELS 6 Xposition Yposition Zposition Xrotation Yrotation Zrotation
	JOINT LeftUpLeg_virtual
	{
		OFFSET 0.000000 0.000000 0.000000
		CHANNELS 3 Xrotation Yrotation Zrotation
		JOINT LeftUpLeg
		{
			OFFSET 18.735201 -5.666702 -4.541200
			CHANNELS 3 Xrotation Yrotation Zrotation
			JOINT LeftLeg
			{
				OFFSET -0.021200 -31.938179 0.493100
				CHANNELS 3 Xrotation Yrotation Zrotation
				JOINT LeftFoot
				{
					OFFSET 0.021200 -31.938179 -4.336299
					CHANNELS 3 Xrotation Yrotation Zrotation
					JOINT LeftToeBase
					{
						OFFSET 0.943001 -26.722000 15.023500
						CHANNELS 3 Xrotation Yrotation Zrotation
						End Site
						{
							OFFSET 0 0 0
						}
					}
				}
			}
		}
	}
	JOINT RightUpLeg_virtual
	{
		OFFSET 0.000000 0.000000 0.000000
		CHANNELS 3 Xrotation Yrotation Zrotation
		JOINT RightUpLeg
		{
			OFFSET -18.735201 -5.666702 -4.541200
			CHANNELS 3 Xrotation Yrotation Zrotation
			JOINT RightLeg
			{
				OFFSET 0.018946 -31.938133 0.493100
				CHANNELS 3 Xrotation Yrotation Zrotation
				JOINT RightFoot
				{
					OFFSET -0.018946 -31.938126 -4.336299
					CHANNELS 3 Xrotation Yrotation Zrotation
					JOINT RightToeBase
					{
						OFFSET -0.943001 -26.722004 15.023500
						CHANNELS 3 Xrotation Yrotation Zrotation
						End Site
						{
							OFFSET 0 0 0
						}
					}
				}
			}
		}
	}
	JOINT Hips_virtual
	{
		OFFSET 0.000000 0.000000 0.000000
		CHANNELS 3 Xrotation Yrotation Zrotation
		JOINT Hips
		{
			OFFSET -0.000000 -0.000000 -0.000000
			CHANNELS 3 Xrotation Yrotation Zrotation
			JOINT Spine
			{
				OFFSET 0.000000 10.199997 -0.299500
				CHANNELS 3 Xrotation Yrotation Zrotation
				JOINT Spine1
				{
					OFFSET 0.000000 11.900002 -1.516600
					CHANNELS 3 Xrotation Yrotation Zrotation
					JOINT Spine2
					{
						OFFSET 0.000000 13.600006 -2.842500
						CHANNELS 3 Xrotation Yrotation Zrotation
						JOINT Neck_virtual
						{
							OFFSET 0.000000 0.000000 0.000000
							CHANNELS 3 Xrotation Yrotation Zrotation
							JOINT Neck
							{
								OFFSET 0.000000 9.624100 -2.890100
								CHANNELS 3 Xrotation Yrotation Zrotation
								JOINT Head
								{
									OFFSET 0.000000 14.068802 -1.351900
									CHANNELS 3 Xrotation Yrotation Zrotation
									End Site
									{
										OFFSET 0 0 0
									}
								}
							}
						}
						JOINT LeftShoulder_virtual
						{
							OFFSET 0.000000 0.000000 0.000000
							CHANNELS 3 Xrotation Yrotation Zrotation
							JOINT LeftShoulder
							{
								OFFSET 15.263000 10.923401 -0.547700
								CHANNELS 3 Xrotation Yrotation Zrotation
								JOINT LeftArm
								{
									OFFSET 25.438599 -2.830597 -13.032500
									CHANNELS 3 Xrotation Yrotation Zrotation
									JOINT LeftForeArm
									{
										OFFSET 29.960503 0.000000 0.000000
										CHANNELS 3 Xrotation Yrotation Zrotation
										JOINT LeftHand
										{
											OFFSET 27.849251 0.000000 0.000000
											CHANNELS 3 Xrotation Yrotation Zrotation
											End Site
											{
												OFFSET 0 0 0
											}
										}
									}
								}
							}
						}
						JOINT RightShoulder_virtual
						{
							OFFSET 0.000000 0.000000 0.000000
							CHANNELS 3 Xrotation Yrotation Zrotation
							JOINT RightShoulder
							{
								OFFSET -15.263000 10.923401 -0.547700
								CHANNELS 3 Xrotation Yrotation Zrotation
								JOINT RightArm
								{
									OFFSET -25.438599 -2.830597 -13.032500
									CHANNELS 3 Xrotation Yrotation Zrotation
									JOINT RightForeArm
									{
										OFFSET -29.960503 0.000000 0.000000
										CHANNELS 3 Xrotation Yrotation Zrotation
										JOINT RightHand
										{
											OFFSET -27.849251 0.000000 0.000000
											CHANNELS 3 Xrotation Yrotation Zrotation
											End Site
											{
												OFFSET 0 0 0
											}
										}
									}
								}
							}
						}
					}
				}
			}
		}
	}
}
MOTION
Frames: 13
Frame Time: 0.03333333
0.973469 53.629333 -4.875175 0.000000 0.000000 0.000000 179.648196 -0.964165 162.205067 -94.033550 -21.915454 17.614199 118.104872 -2.021076 0.742028 -22.247622 0.742295 -10.315282 0.000000 0.000000 0.000000 178.832343 -2.323863 164.103095 -64.150469 15.312087 -29.483635 109.646215 7.313805 0.150340 -33.837290 -8.731110 33.251649 0.000000 0.000000 0.000000 179.411994 -2.191259 162.031130 0.815094 -0.271001 0.350254 4.496733 2.393755 -3.305674 8.123932 6.554648 -4.406003 0.000000 0.000000 0.000000 7.239329 7.453706 -4.715669 -0.742026 5.793130 0.989559 0.000000 0.000000 0.000000 8.815807 6.952163 -4.857026 1.217998 -13.214846 -11.285226 -2.696265 -5.538709 -33.490101 41.873185 -36.701509 1.259072 0.000000 0.000000 0.000000 8.006571 6.856353 -4.987079 3.362189 -16.382856 9.123160 13.483114 -16.310171 65.557733 33.543438 46.576180 -7.324471 0.000000 0.000000 0.000000 
0.970592 53.624069 -4.880791 0.000000 0.000000 0.000000 179.607447 -0.997437 162.182651 -94.075249 -21.934637 17.627745 118.108970 -2.027527 0.733273 -22.242923 0.716870 -10.299312 0.000000 0.000000 0.000000 178.793083 -2.359718 164.079941 -64.150223 15.290161 -29.514002 109.635089 7.316714 0.155432 -33.837976 -8.719632 33.236517 0.000000 0.000000 0.000000 179.371819 -2.222511 162.011691 0.814739 -0.269616 0.348046 4.495298 2.384348 -3.303422 8.084475 6.547815 -4.402784 0.000000 0.000000 0.000000 7.202928 7.448817 -4.714676 -0.750026 5.795323 0.991512 0.000000 0.000000 0.000000 8.775993 6.948185 -4.856078 1.220025 -13.221192 -11.293854 -2.696719 -5.531334 -33.438400 41.893481 -36.749041 1.245825 0.000000 0.000000 0.000000 7.968465 6.851259 -4.987239 3.358799 -16.392514 9.071497 13.482129 -16.269844 65.576107 33.601283 46.490734 -7.343720 0.000000 0.000000 0.000000 
0.969867 53.614845 -4.884850 0.000000 0.000000 0.000000 179.568679 -1.027931 162.150877 -94.112897 -21.955991 17.642616 118.122931 -2.034601 0.724096 -22.233558 0.691211 -10.276935 0.000000 0.000000 0.000000 178.755135 -2.391441 164.048563 -64.139445 15.265090 -29.537969 109.621572 7.315780 0.167468 -33.851743 -8.715238 33.225868 0.000000 0.000000 0.000000 179.334471 -2.251172 161.983523 0.814646 -0.268655 0.345748 4.491816 2.372242 -3.300962 8.050326 6.540031 -4.399998 0.000000 0.000000 0.000000 7.172278 7.442715 -4.715444 -0.752337 5.796990 0.992639 0.000000 0.000000 0.000000 8.742475 6.943099 -4.856590 1.220262 -13.227276 -11.304919 -2.705020 -5.515876 -33.370716 41.901008 -36.797521 1.228110 0.000000 0.000000 0.000000 7.935449 6.845050 -4.988262 3.356168 -16.410906 9.028706 13.457634 -16.213793 65.598435 33.654521 46.385963 -7.363291 0.000000 0.000000 0.000000 
0.971201 53.600891 -4.889973 0.000000 0.000000 0.000000 179.533148 -1.061088 162.110496 -94.155319 -21.981610 17.657241 118.147369 -2.043957 0.714342 -22.215009 0.665469 -10.247562 0.000000 0.000000 0.000000 178.719877 -2.423807 164.009890 -64.115894 15.236694 -29.560290 109.611033 7.308612 0.186018 -33.881430 -8.720867 33.219151 0.000000 0.000000 0.000000 179.300935 -2.281960 161.946913 0.815285 -0.266679 0.346303 4.488101 2.359259 -3.298183 8.022274 6.533611 -4.395461 0.000000 0.000000 0.000000 7.146828 7.437619 -4.715467 -0.749688 5.797952 0.992234 0.000000 0.000000 0.000000 8.717272 6.938299 -4.856634 1.217677 -13.240055 -11.321355 -2.720049 -5.492343 -33.292217 41.889554 -36.845647 1.202402 0.000000 0.000000 0.000000 7.909210 6.839718 -4.987713 3.355074 -16.436000 8.993744 13.423447 -16.146637 65.630769 33.701618 46.261039 -7.383555 0.000000 0.000000 0.000000 
0.973099 53.581764 -4.892906 0.000000 0.000000 0.000000 179.502685 -1.101707 162.065021 -94.211033 -22.012008 17.669134 118.178843 -2.057739 0.703167 -22.178043 0.640172 -10.214629 0.000000 0.000000 0.000000 178.689223 -2.463678 163.967693 -64.076477 15.207876 -29.582075 109.607611 7.294037 0.208125 -33.924112 -8.736605 33.219366 0.000000 0.000000 0.000000 179.273191 -2.320840 161.904676 0.817095 -0.264416 0.347991 4.486336 2.347419 -3.294346 8.002738 6.531364 -4.387359 0.000000 0.000000 0.000000 7.128472 7.436190 -4.712206 -0.742451 5.797659 0.989156 0.000000 0.000000 0.000000 8.702990 6.936518 -4.853755 1.211919 -13.266543 -11.342854 -2.739533 -5.457184 -33.206631 41.863613 -36.910076 1.175816 0.000000 0.000000 0.000000 7.892640 6.837993 -4.983632 3.356140 -16.466922 8.961329 13.391499 -16.077640 65.672918 33.745062 46.127522 -7.409355 0.000000 0.000000 0.000000 
0.975387 53.558754 -4.894081 0.000000 0.000000 0.000000 179.479941 -1.156162 162.018753 -94.280824 -22.046257 17.675590 118.212871 -2.077270 0.691193 -22.127059 0.615224 -10.185430 0.000000 0.000000 0.000000 178.665837 -2.518560 163.924636 -64.018564 15.186210 -29.600274 109.617057 7.271991 0.228252 -33.979894 -8.761304 33.230339 0.000000 0.000000 0.000000 179.252332 -2.374041 161.860375 0.819474 -0.260365 0.349302 4.488796 2.338630 -3.288686 7.995304 6.535267 -4.374776 0.000000 0.000000 0.000000 7.122220 7.440654 -4.704117 -0.731152 5.795920 0.983134 0.000000 0.000000 0.000000 8.702381 6.939579 -4.846585 1.203318 -13.309996 -11.366760 -2.762503 -5.408639 -33.116302 41.831975 -37.013502 1.160553 0.000000 0.000000 0.000000 7.888332 6.841630 -4.974912 3.359064 -16.506880 8.926684 13.365121 -16.014651 65.722068 33.787149 45.997216 -7.444232 0.000000 0.000000 0.000000 
0.976928 53.532188 -4.894321 0.000000 0.000000 0.000000 179.466799 -1.225926 161.974630 -94.357772 -22.085435 17.671269 118.243415 -2.104574 0.682308 -22.071369 0.588420 -10.168868 0.000000 0.000000 0.000000 178.653010 -2.587016 163.881824 -63.941185 15.175664 -29.611916 109.640054 7.244268 0.242441 -34.046362 -8.792958 33.257117 0.000000 0.000000 0.000000 179.239341 -2.442339 161.815241 0.823404 -0.256013 0.350182 4.496468 2.334303 -3.280794 8.002928 6.546419 -4.358408 0.000000 0.000000 0.000000 7.132146 7.452621 -4.691841 -0.715850 5.792103 0.974055 0.000000 0.000000 0.000000 8.717336 6.949512 -4.835250 1.192030 -13.370363 -11.387096 -2.788285 -5.341158 -33.022117 41.801796 -37.168018 1.165832 0.000000 0.000000 0.000000 7.899034 6.852519 -4.962291 3.363517 -16.559153 8.885693 13.339139 -15.958701 65.781559 33.825463 45.874136 -7.488226 0.000000 0.000000 0.000000 
0.976289 53.504738 -4.891277 0.000000 0.000000 0.000000 179.463617 -1.308618 161.934086 -94.431436 -22.125785 17.656145 118.266993 -2.137814 0.676646 -22.017233 0.561588 -10.166544 0.000000 0.000000 0.000000 178.651603 -2.666156 163.841553 -63.845002 15.176081 -29.616622 109.675776 7.213143 0.251604 -34.122064 -8.829717 33.298989 0.000000 0.000000 0.000000 179.234846 -2.523350 161.771528 0.826138 -0.252418 0.349111 4.507861 2.335260 -3.271171 8.027783 6.564790 -4.340889 0.000000 0.000000 0.000000 7.161675 7.471803 -4.678204 -0.697131 5.785938 0.962714 0.000000 0.000000 0.000000 8.748919 6.966491 -4.822153 1.179699 -13.443408 -11.398781 -2.822050 -5.261460 -32.929080 41.772406 -37.358553 1.190440 0.000000 0.000000 0.000000 7.926251 6.870368 -4.948052 3.370308 -16.628362 8.839693 13.301526 -15.901073 65.858801 33.853283 45.747463 -7.533972 0.000000 0.000000 0.000000 
0.974041 53.478767 -4.888313 0.000000 0.000000 0.000000 179.469586 -1.399236 161.896479 -94.492785 -22.162419 17.633896 118.285544 -2.172956 0.672464 -21.971487 0.538476 -10.170392 0.000000 0.000000 0.000000 178.660031 -2.748678 163.801720 -63.735255 15.184880 -29.615871 109.720261 7.180057 0.259220 -34.200970 -8.870117 33.351766 0.000000 0.000000 0.000000 179.238780 -2.609801 161.728976 0.827360 -0.249940 0.347623 4.521199 2.341652 -3.260935 8.069274 6.588370 -4.325423 0.000000 0.000000 0.000000 7.210382 7.496584 -4.666921 -0.675860 5.777261 0.950984 0.000000 0.000000 0.000000 8.796296 6.989015 -4.810671 1.167513 -13.522327 -11.399575 -2.865372 -5.180592 -32.849764 41.734672 -37.547066 1.221782 0.000000 0.000000 0.000000 7.970111 6.893913 -4.935854 3.380106 -16.717854 8.790851 13.243112 -15.826433 65.958987 33.860417 45.597441 -7.569281 0.000000 0.000000 0.000000 
0.969539 53.457870 -4.886063 0.000000 0.000000 0.000000 179.483192 -1.485313 161.858777 -94.535829 -22.194100 17.606372 118.298931 -2.204831 0.667241 -21.929885 0.522670 -10.170416 0.000000 0.000000 0.000000 178.676287 -2.824655 163.762255 -63.618417 15.199425 -29.609659 109.762499 7.145642 0.267442 -34.264559 -8.909415 33.416076 0.000000 0.000000 0.000000 179.250610 -2.691165 161.688418 0.826625 -0.248575 0.348202 4.533308 2.352570 -3.251497 8.124938 6.614746 -4.315248 0.000000 0.000000 0.000000 7.274120 7.524048 -4.661495 -0.653398 5.766090 0.940829 0.000000 0.000000 0.000000 8.857257 7.014483 -4.804358 1.157193 -13.599013 -11.390197 -2.912185 -5.119184 -32.798599 41.680984 -37.694889 1.246349 0.000000 0.000000 0.000000 8.028609 6.920778 -4.928861 3.394907 -16.828900 8.743165 13.153624 -15.722015 66.079970 33.838912 45.405643 -7.581664 0.000000 0.000000 0.000000 
0.964025 53.445183 -4.887547 0.000000 0.000000 0.000000 179.502330 -1.556842 161.820869 -94.559447 -22.218575 17.576168 118.309012 -2.228401 0.657512 -21.883287 0.518479 -10.156965 0.000000 0.000000 0.000000 178.696750 -2.891654 163.724989 -63.499470 15.219458 -29.594055 109.787306 7.110040 0.276651 -34.301152 -8.943941 33.491614 0.000000 0.000000 0.000000 179.268888 -2.759357 161.649814 0.823133 -0.248070 0.350050 4.541886 2.366457 -3.243941 8.189613 6.640485 -4.312123 0.000000 0.000000 0.000000 7.346387 7.550869 -4.663207 -0.631645 5.753036 0.934635 0.000000 0.000000 0.000000 8.927478 7.039199 -4.805099 1.150837 -13.662841 -11.372612 -2.957688 -5.093039 -32.787193 41.607559 -37.772517 1.252369 0.000000 0.000000 0.000000 8.096949 6.947361 -4.929530 3.415498 -16.963980 8.698536 13.025268 -15.576354 66.209484 33.784896 45.160391 -7.561985 0.000000 0.000000 0.000000 
0.959448 53.442154 -4.894291 0.000000 0.000000 0.000000 179.525484 -1.607078 161.783139 -94.562330 -22.237627 17.544454 118.313766 -2.242239 0.644068 -21.830828 0.524778 -10.131586 0.000000 0.000000 0.000000 178.719331 -2.944057 163.688953 -63.383985 15.244683 -29.565433 109.785148 7.072942 0.286583 -34.308488 -8.973194 33.574580 0.000000 0.000000 0.000000 179.291168 -2.809791 161.612794 0.819060 -0.248191 0.353142 4.546103 2.380943 -3.238626 8.258261 6.662552 -4.316119 0.000000 0.000000 0.000000 7.420353 7.574179 -4.671594 -0.612004 5.738827 0.934054 0.000000 0.000000 0.000000 9.002232 7.060884 -4.812857 1.149316 -13.703681 -11.349608 -2.994643 -5.100006 -32.815845 41.520126 -37.778084 1.240127 0.000000 0.000000 0.000000 8.169905 6.970741 -4.937842 3.442498 -17.124145 8.658876 12.853817 -15.383837 66.335712 33.699942 44.864647 -7.508288 0.000000 0.000000 0.000000 
0.955842 53.449402 -4.905109 0.000000 0.000000 0.000000 179.551344 -1.633378 161.746734 -94.542761 -22.253098 17.511499 118.305065 -2.247928 0.630535 -21.777283 0.536407 -10.107391 0.000000 0.000000 0.000000 178.743414 -2.980631 163.655499 -63.274258 15.271178 -29.523640 109.757493 7.032855 0.298334 -34.293328 -9.001292 33.655617 0.000000 0.000000 0.000000 179.315675 -2.843463 161.577250 0.813697 -0.248241 0.355065 4.546273 2.394195 -3.235160 8.325582 6.678722 -4.325491 0.000000 0.000000 0.000000 7.490160 7.591798 -4.684189 -0.595768 5.724306 0.939786 0.000000 0.000000 0.000000 9.076735 7.077157 -4.825519 1.153858 -13.710580 -11.322376 -3.022907 -5.132278 -32.871873 41.429844 -37.731362 1.217691 0.000000 0.000000 0.000000 8.240815 6.988200 -4.951496 3.476273 -17.309105 8.627722 12.645109 -15.146127 66.450958 33.592318 44.537666 -7.425933 0.000000 0.000000 0.000000 
